HIERARCHY
ROOT Hips
{
	OFFSET 0.000000 0.000000 0.000000 
	CHANNELS 6 Xposition Yposition Zposition Zrotation Yrotation Xrotation
	JOINT LeftUpLeg
	{
		OFFSET 1.363060 -1.794630 0.839290 
		CHANNELS 3 Zrotation Yrotation Xrotation
		JOINT LeftLeg
		{
			OFFSET 2.448110 -6.726130 0.000000 
			CHANNELS 3 Zrotation Yrotation Xrotation
			JOINT LeftFoot
			{
				OFFSET 2.562200 -7.039590 0.000000 
				CHANNELS 3 Zrotation Yrotation Xrotation
				JOINT LeftToeBase
				{
					OFFSET 0.157640 -0.433110 2.322550 
					CHANNELS 3 Zrotation Yrotation Xrotation
					End Site
					{
						OFFSET 0.000000 0.000000 0.000000 
					}
				}
			}
		}
	}
	JOINT RightUpLeg
	{
		OFFSET -1.305520 -1.794630 0.839290 
		CHANNELS 3 Zrotation Yrotation Xrotation
		JOINT RightLeg
		{
			OFFSET -2.542530 -6.985550 0.000000 
			CHANNELS 3 Zrotation Yrotation Xrotation
			JOINT RightFoot
			{
				OFFSET -2.568260 -7.056230 0.000000 
				CHANNELS 3 Zrotation Yrotation Xrotation
				JOINT RightToeBase
				{
					OFFSET -0.164730 -0.452590 2.363150 
					CHANNELS 3 Zrotation Yrotation Xrotation
					End Site
					{
						OFFSET 0.000000 0.000000 0.000000 
					}
				}
			}
		}
	}
	JOINT Spine
	{
		OFFSET 0.028270 2.035590 -0.193380 
		CHANNELS 3 Zrotation Yrotation Xrotation
		JOINT Spine1
		{
			OFFSET 0.056720 2.048850 -0.042750 
			CHANNELS 3 Zrotation Yrotation Xrotation
			JOINT Neck1
			{
				OFFSET -0.054170 1.746240 0.172020 
				CHANNELS 3 Zrotation Yrotation Xrotation
				JOINT Head
				{
					OFFSET 0.104070 1.761360 -0.123970 
					CHANNELS 3 Zrotation Yrotation Xrotation
					End Site
					{
						OFFSET 0.000000 0.000000 0.000000 
					}
				}
			}
			JOINT LeftArm
			{
				OFFSET 3.362410 1.200890 -0.311210 
				CHANNELS 3 Zrotation Yrotation Xrotation
				JOINT LeftForeArm
				{
					OFFSET 4.983000 -0.000000 -0.000000 
					CHANNELS 3 Zrotation Yrotation Xrotation
					JOINT LeftHand
					{
						OFFSET 3.483560 -0.000000 -0.000000 
						CHANNELS 3 Zrotation Yrotation Xrotation
						JOINT LeftHandIndex1
						{
							OFFSET 0.715260 -0.000000 -0.000000 
							CHANNELS 3 Zrotation Yrotation Xrotation
							End Site
							{
								OFFSET 0.000000 0.000000 0.000000 
							}
						}
					}
				}
			}
			JOINT RightArm
			{
				OFFSET -3.136600 1.374050 -0.404650 
				CHANNELS 3 Zrotation Yrotation Xrotation
				JOINT RightForeArm
				{
					OFFSET -5.241900 -0.000000 -0.000000 
					CHANNELS 3 Zrotation Yrotation Xrotation
					JOINT RightHand
					{
						OFFSET -3.444170 -0.000000 -0.000000 
						CHANNELS 3 Zrotation Yrotation Xrotation
						JOINT RightHandIndex1
						{
							OFFSET -0.622530 -0.000000 -0.000000 
							CHANNELS 3 Zrotation Yrotation Xrotation
							End Site
							{
								OFFSET 0.000000 0.000000 0.000000 
							}
						}
					}
				}
			}
		}
	}
}
MOTION
Frames: 13
Frame Time: 0.041667
18.300871 18.460382 -9.703534 -38.058016 -84.165546 33.148406 -38.406524 -6.239881 1.870496 8.310633 9.795106 36.222244 -4.654044 -24.122213 -35.395649 1.605700 7.991400 22.687900 48.286545 1.811563 1.920825 -8.499497 -11.000122 36.365480 -1.516894 8.215861 -38.468341 -1.171800 -6.871300 19.334500 12.969507 -1.521606 20.457575 -2.764510 0.413353 -13.351104 2.822424 0.725133 28.933317 2.897500 0.001800 10.279600 -96.107832 2.488320 30.939272 19.638887 -29.575668 -2.901545 3.378951 5.248537 -0.576897 -7.125000 0.000000 0.000000 92.484424 -2.485991 17.461912 -19.335919 27.047855 -2.690290 -2.053280 0.254814 -5.534519 7.125000 0.000000 0.000000 
18.298633 18.455549 -9.702550 -38.653609 -84.176458 33.668833 -38.314535 -6.037012 1.906812 8.287078 9.780290 36.213107 -4.720912 -24.369502 -35.446830 1.522300 7.790800 22.080300 48.269611 1.721336 1.960244 -8.504979 -11.022379 36.402278 -1.573827 7.989719 -38.463564 -1.050000 -6.515900 18.288800 12.895214 -1.471690 20.441670 -2.804968 0.425931 -13.341706 2.883161 0.633974 29.623154 2.903200 -0.048500 10.401500 -96.072898 2.517380 30.928170 19.640339 -29.550889 -2.899611 3.384398 5.257049 -0.568346 -7.125000 0.000000 0.000000 92.507220 -2.538992 17.438875 -19.363564 27.055006 -2.694019 -2.032722 0.245343 -5.581764 7.125000 0.000000 0.000000 
18.298185 18.446597 -9.702460 -40.157425 -84.143048 35.072449 -38.140424 -5.743514 1.984536 8.291046 9.757640 36.109697 -4.794734 -24.389651 -35.214676 1.670300 8.142700 23.148300 48.350926 1.783910 1.965434 -8.510991 -11.065432 36.563262 -1.557414 8.030016 -38.418576 -1.110400 -6.694800 18.814400 12.753184 -1.383304 20.482321 -2.901029 0.441235 -13.349006 2.779937 0.474476 30.105789 2.835500 -0.142200 10.474400 -96.041789 2.541996 30.840004 19.640410 -29.535139 -2.899911 3.387822 5.235376 -0.440743 -7.125000 0.000000 0.000000 92.623574 -2.538295 17.226141 -19.342360 27.014746 -2.686142 -2.042524 0.246213 -5.540980 7.125000 0.000000 0.000000 
18.300065 18.439257 -9.704519 -40.245166 -84.163153 35.177994 -38.095644 -5.579010 1.836363 8.333631 9.779068 36.119508 -4.992803 -24.407814 -34.507810 2.152700 9.177100 26.351000 48.367710 1.868638 1.955204 -8.513834 -11.075994 36.630542 -1.514326 8.182355 -38.398022 -1.179500 -6.892700 19.398000 12.608221 -1.301973 20.371098 -2.906315 0.466549 -13.362014 2.853435 0.290435 31.147263 2.834200 -0.235900 10.713800 -95.969066 2.552613 30.930469 19.647308 -29.514616 -2.898630 3.375216 5.248413 -0.553458 -7.125000 0.000000 0.000000 92.692374 -2.528000 17.004448 -19.309940 26.954903 -2.673728 -2.056837 0.256129 -5.506795 7.125000 0.000000 0.000000 
18.300602 18.441495 -9.705145 -39.507956 -84.198277 34.414976 -38.082678 -5.424119 1.809205 8.332784 9.787210 36.138054 -5.143660 -24.624641 -34.202248 2.254300 9.376900 26.981600 48.320101 1.921497 2.043607 -8.513444 -11.071502 36.642293 -1.510285 8.277520 -38.512011 -1.213100 -6.986900 19.676600 12.536890 -1.267861 20.239400 -2.857658 0.483455 -13.388544 2.686820 0.299472 32.195925 2.805500 -0.274900 10.940500 -95.942144 2.610770 30.992369 19.663460 -29.506344 -2.903375 3.413887 5.251903 -0.657637 -7.125000 0.000000 0.000000 92.689324 -2.546186 16.912870 -19.296361 26.911185 -2.662869 -2.052761 0.283420 -5.456144 7.125000 0.000000 0.000000 
18.300065 18.448388 -9.706309 -39.286460 -84.290906 34.171787 -38.025642 -5.337020 1.881225 8.274829 9.774996 36.141074 -5.068841 -24.841137 -34.762624 1.771000 8.371900 23.849400 48.244244 1.798641 2.060702 -8.508284 -11.054338 36.628198 -1.465176 8.464070 -38.504898 -1.243100 -7.069500 19.921400 11.872629 -1.078975 20.122379 -2.800563 0.536845 -13.443458 3.058443 0.059026 33.253283 2.852200 -0.344300 11.151600 -95.841203 2.685689 30.887982 19.682156 -29.488410 -2.907846 3.471245 5.228747 -0.384853 -7.125000 0.000000 0.000000 92.897592 -2.573833 16.467534 -19.267031 26.860357 -2.647587 -2.035162 0.300373 -5.193548 7.125000 0.000000 0.000000 
18.299975 18.450267 -9.709711 -39.849114 -84.348898 34.802956 -37.968642 -5.344617 1.858165 8.244798 9.770877 36.154160 -4.938411 -24.835140 -35.264905 1.486100 7.701800 21.811900 48.247245 1.735463 1.945298 -8.508938 -11.055887 36.659859 -1.426878 8.582446 -38.452062 -1.263100 -7.124000 20.083200 11.434832 -0.939851 19.904850 -2.811829 0.563671 -13.444367 3.955992 -0.333049 34.532450 3.036700 -0.416700 11.446700 -95.789986 2.701572 30.570922 19.682154 -29.459499 -2.903859 3.480538 5.211534 0.019833 -7.125000 0.000000 0.000000 93.079533 -2.580940 16.114361 -19.244223 26.810278 -2.634285 -2.020902 0.318112 -5.045427 7.125000 0.000000 0.000000 
18.300960 18.445076 -9.712127 -39.291152 -84.417283 34.250182 -38.009137 -5.271597 1.861974 8.246638 9.763937 36.095913 -5.053241 -24.941380 -34.961070 1.657600 8.113200 23.058500 48.197250 1.839516 1.875291 -8.537708 -11.093734 36.823967 -1.457189 8.492847 -38.517529 -1.261500 -7.119800 20.070900 11.457202 -1.005232 19.874158 -2.772495 0.545871 -13.432607 4.476295 -0.461121 35.454228 3.189300 -0.428200 11.659100 -95.826057 2.669259 30.411298 19.718056 -29.503262 -2.912009 3.449606 5.221363 -0.056783 -7.125000 0.000000 0.000000 93.010701 -2.544865 16.307304 -19.251864 26.794055 -2.632603 -2.030071 0.350332 -5.165765 7.125000 0.000000 0.000000 
18.303735 18.435587 -9.713291 -36.695187 -84.611448 31.663519 -38.168340 -5.003066 1.764959 8.239077 9.734633 35.892242 -5.398310 -25.329087 -34.128728 2.003400 8.873200 25.399500 47.949377 1.912258 1.720918 -8.600247 -11.150524 37.145468 -1.476016 8.473523 -38.637567 -1.247900 -7.082700 19.960500 10.982755 -0.983267 19.952614 -2.537128 0.588266 -13.472456 4.592855 -0.575511 36.537341 3.225200 -0.483400 11.947000 -95.783526 2.646411 30.546195 19.797593 -29.592080 -2.933686 3.453445 5.246844 -0.309264 -7.125000 0.000000 0.000000 92.947306 -2.517740 16.437471 -19.278174 26.823900 -2.641784 -2.032301 0.347808 -5.278917 7.125000 0.000000 0.000000 
18.305883 18.429232 -9.715260 -33.492157 -84.877317 28.529161 -38.380281 -4.556488 1.549230 8.201178 9.685404 35.603176 -5.624377 -25.639502 -33.629244 2.107700 9.086900 26.067700 47.645657 2.087679 1.540392 -8.672988 -11.211061 37.538343 -1.466766 8.611772 -38.836612 -1.313700 -7.259900 20.487700 10.395820 -0.883466 19.905335 -2.231266 0.673189 -13.498513 4.807069 -0.754189 37.718193 3.284200 -0.557100 12.262600 -95.785317 2.646637 30.506077 19.815583 -29.591990 -2.940619 3.521611 5.212262 -0.207822 -7.125000 0.000000 0.000000 92.907200 -2.516903 16.510045 -19.316601 26.873655 -2.658173 -2.034454 0.317444 -5.455158 7.125000 0.000000 0.000000 
18.305346 18.425651 -9.717319 -30.991288 -85.192840 26.084779 -38.619324 -4.275941 1.486026 8.146437 9.639879 35.331416 -5.612264 -25.673060 -33.672029 2.055100 8.979800 25.732200 47.361595 2.240109 1.376389 -8.744220 -11.271272 37.909655 -1.478796 8.655522 -39.016491 -1.277700 -7.163500 20.200600 9.765737 -0.723182 19.871311 -1.951326 0.779227 -13.498194 4.875972 -0.889900 38.539750 3.287700 -0.625700 12.438900 -95.725085 2.654130 30.558024 19.855097 -29.598271 -2.950903 3.559703 5.183059 -0.279232 -7.125000 0.000000 0.000000 92.884924 -2.523421 16.557164 -19.364704 26.928909 -2.675535 -2.052078 0.316079 -5.675438 7.125000 0.000000 0.000000 
18.304451 18.420102 -9.719468 -31.550400 -85.249185 26.645918 -38.533519 -4.044656 1.548418 8.137421 9.599986 35.174449 -5.808766 -25.950960 -33.294297 2.294400 9.454100 27.226200 47.371449 2.353653 1.212751 -8.781251 -11.334649 38.171506 -1.527394 8.516915 -39.105560 -1.183100 -6.902900 19.427900 9.690893 -0.665541 19.873160 -1.932906 0.810528 -13.470030 4.526220 -0.889474 39.506600 3.186800 -0.692500 12.695300 -95.564139 2.645075 30.941264 19.994107 -29.743429 -2.984459 3.543113 5.303530 -0.898349 -7.125000 0.000000 0.000000 92.911218 -2.491089 16.536084 -19.394664 26.964263 -2.684618 -2.059478 0.326210 -5.725855 7.125000 0.000000 0.000000 
18.304630 18.413120 -9.721974 -32.614904 -85.223474 27.627852 -38.347061 -3.779553 1.653578 8.142683 9.571979 35.097639 -6.128004 -26.411168 -32.686039 2.601700 10.020600 29.043500 47.487473 2.594538 1.230882 -8.799717 -11.384757 38.359687 -1.549571 8.440650 -39.125198 -1.249800 -7.088000 19.976200 9.787522 -0.702825 19.983681 -1.969785 0.799238 -13.473619 4.512538 -0.938336 40.389019 3.186700 -0.738000 12.950200 -95.394490 2.606182 31.284053 20.126357 -29.887804 -3.012966 3.478876 5.440752 -1.563631 -7.125000 0.000000 0.000000 92.911426 -2.469452 16.754594 -19.478000 27.077531 -2.710219 -2.021211 0.306816 -5.863135 7.125000 0.000000 0.000000 
